<mxfile host="app.diagrams.net" modified="2020-10-18T10:19:05.040Z" agent="5.0 (Windows NT 10.0; Win64; x64) AppleWebKit/537.36 (KHTML, like Gecko) Chrome/86.0.4240.75 Safari/537.36" etag="Bt0Q2N6XEFVHdqS_cFxk" version="13.8.0" type="github">
  <diagram id="OhtHKVrL0nnKopMcmY72" name="Page-1">
    <mxGraphModel dx="1038" dy="580" grid="1" gridSize="10" guides="1" tooltips="1" connect="1" arrows="1" fold="1" page="1" pageScale="1" pageWidth="827" pageHeight="1169" math="0" shadow="0">
      <root>
        <mxCell id="0" />
        <mxCell id="1" parent="0" />
        <mxCell id="2mTgwutv4SFY01zLwJAk-33" value="" style="endArrow=none;endFill=0;endSize=12;html=1;exitX=0.563;exitY=0;exitDx=0;exitDy=0;entryX=0;entryY=0.5;entryDx=0;entryDy=0;startArrow=none;startFill=0;sketch=0;edgeStyle=orthogonalEdgeStyle;exitPerimeter=0;" parent="1" source="2mTgwutv4SFY01zLwJAk-7" target="2mTgwutv4SFY01zLwJAk-22" edge="1">
          <mxGeometry width="160" relative="1" as="geometry">
            <mxPoint x="330" y="200" as="sourcePoint" />
            <mxPoint x="490" y="200" as="targetPoint" />
          </mxGeometry>
        </mxCell>
        <mxCell id="2mTgwutv4SFY01zLwJAk-39" value="" style="endArrow=none;endFill=0;endSize=12;html=1;exitX=0.5;exitY=0;exitDx=0;exitDy=0;entryX=0.505;entryY=1.004;entryDx=0;entryDy=0;entryPerimeter=0;" parent="1" source="2mTgwutv4SFY01zLwJAk-34" target="2mTgwutv4SFY01zLwJAk-10" edge="1">
          <mxGeometry width="160" relative="1" as="geometry">
            <mxPoint x="330" y="200" as="sourcePoint" />
            <mxPoint x="490" y="200" as="targetPoint" />
          </mxGeometry>
        </mxCell>
        <mxCell id="2mTgwutv4SFY01zLwJAk-50" value="" style="endArrow=none;endFill=0;endSize=12;html=1;entryX=0;entryY=0.5;entryDx=0;entryDy=0;exitX=1;exitY=0.5;exitDx=0;exitDy=0;" parent="1" source="TXsVOiQQEkHrG9GgxMM1-3" target="2mTgwutv4SFY01zLwJAk-44" edge="1">
          <mxGeometry width="160" relative="1" as="geometry">
            <mxPoint x="420" y="492" as="sourcePoint" />
            <mxPoint x="490" y="400" as="targetPoint" />
          </mxGeometry>
        </mxCell>
        <mxCell id="2mTgwutv4SFY01zLwJAk-34" value="Карта пациента" style="swimlane;fontStyle=1;align=center;verticalAlign=top;childLayout=stackLayout;horizontal=1;startSize=26;horizontalStack=0;resizeParent=1;resizeParentMax=0;resizeLast=0;collapsible=1;marginBottom=0;" parent="1" vertex="1">
          <mxGeometry x="30" y="440" width="160" height="130" as="geometry" />
        </mxCell>
        <mxCell id="2mTgwutv4SFY01zLwJAk-35" value="Пациент&#xa;Лечение" style="text;strokeColor=none;fillColor=none;align=left;verticalAlign=top;spacingLeft=4;spacingRight=4;overflow=hidden;rotatable=0;points=[[0,0.5],[1,0.5]];portConstraint=eastwest;" parent="2mTgwutv4SFY01zLwJAk-34" vertex="1">
          <mxGeometry y="26" width="160" height="54" as="geometry" />
        </mxCell>
        <mxCell id="2mTgwutv4SFY01zLwJAk-36" value="" style="line;strokeWidth=1;fillColor=none;align=left;verticalAlign=middle;spacingTop=-1;spacingLeft=3;spacingRight=3;rotatable=0;labelPosition=right;points=[];portConstraint=eastwest;" parent="2mTgwutv4SFY01zLwJAk-34" vertex="1">
          <mxGeometry y="80" width="160" height="8" as="geometry" />
        </mxCell>
        <mxCell id="2mTgwutv4SFY01zLwJAk-37" value="Обновить&#xa;Удалить" style="text;strokeColor=none;fillColor=none;align=left;verticalAlign=top;spacingLeft=4;spacingRight=4;overflow=hidden;rotatable=0;points=[[0,0.5],[1,0.5]];portConstraint=eastwest;" parent="2mTgwutv4SFY01zLwJAk-34" vertex="1">
          <mxGeometry y="88" width="160" height="42" as="geometry" />
        </mxCell>
        <mxCell id="2mTgwutv4SFY01zLwJAk-7" value="Пациент" style="swimlane;fontStyle=1;align=center;verticalAlign=top;childLayout=stackLayout;horizontal=1;startSize=26;horizontalStack=0;resizeParent=1;resizeParentMax=0;resizeLast=0;collapsible=1;marginBottom=0;" parent="1" vertex="1">
          <mxGeometry x="30" y="170" width="160" height="160" as="geometry" />
        </mxCell>
        <mxCell id="2mTgwutv4SFY01zLwJAk-8" value="ФИО пациента&#xa;Номер карточки&#xa;Год рождения&#xa;Адрес&#xa;Пол&#xa;" style="text;strokeColor=none;fillColor=none;align=left;verticalAlign=top;spacingLeft=4;spacingRight=4;overflow=hidden;rotatable=0;points=[[0,0.5],[1,0.5]];portConstraint=eastwest;" parent="2mTgwutv4SFY01zLwJAk-7" vertex="1">
          <mxGeometry y="26" width="160" height="74" as="geometry" />
        </mxCell>
        <mxCell id="2mTgwutv4SFY01zLwJAk-9" value="" style="line;strokeWidth=1;fillColor=none;align=left;verticalAlign=middle;spacingTop=-1;spacingLeft=3;spacingRight=3;rotatable=0;labelPosition=right;points=[];portConstraint=eastwest;" parent="2mTgwutv4SFY01zLwJAk-7" vertex="1">
          <mxGeometry y="100" width="160" height="8" as="geometry" />
        </mxCell>
        <mxCell id="2mTgwutv4SFY01zLwJAk-10" value="Зарегистрировать&#xa;Обновить &#xa;Удалить" style="text;strokeColor=none;fillColor=none;align=left;verticalAlign=top;spacingLeft=4;spacingRight=4;overflow=hidden;rotatable=0;points=[[0,0.5],[1,0.5]];portConstraint=eastwest;" parent="2mTgwutv4SFY01zLwJAk-7" vertex="1">
          <mxGeometry y="108" width="160" height="52" as="geometry" />
        </mxCell>
        <mxCell id="2mTgwutv4SFY01zLwJAk-44" value="Врач" style="swimlane;fontStyle=1;align=center;verticalAlign=top;childLayout=stackLayout;horizontal=1;startSize=26;horizontalStack=0;resizeParent=1;resizeParentMax=0;resizeLast=0;collapsible=1;marginBottom=0;" parent="1" vertex="1">
          <mxGeometry x="550" y="409" width="160" height="176" as="geometry" />
        </mxCell>
        <mxCell id="2mTgwutv4SFY01zLwJAk-45" value="ФИО врача&#xa;Специализация&#xa;Участок" style="text;strokeColor=none;fillColor=none;align=left;verticalAlign=top;spacingLeft=4;spacingRight=4;overflow=hidden;rotatable=0;points=[[0,0.5],[1,0.5]];portConstraint=eastwest;" parent="2mTgwutv4SFY01zLwJAk-44" vertex="1">
          <mxGeometry y="26" width="160" height="44" as="geometry" />
        </mxCell>
        <mxCell id="2mTgwutv4SFY01zLwJAk-46" value="" style="line;strokeWidth=1;fillColor=none;align=left;verticalAlign=middle;spacingTop=-1;spacingLeft=3;spacingRight=3;rotatable=0;labelPosition=right;points=[];portConstraint=eastwest;" parent="2mTgwutv4SFY01zLwJAk-44" vertex="1">
          <mxGeometry y="70" width="160" height="40" as="geometry" />
        </mxCell>
        <mxCell id="2mTgwutv4SFY01zLwJAk-47" value="Добавить&#xa;Обновить&#xa;Удалить" style="text;strokeColor=none;fillColor=none;align=left;verticalAlign=top;spacingLeft=4;spacingRight=4;overflow=hidden;rotatable=0;points=[[0,0.5],[1,0.5]];portConstraint=eastwest;" parent="2mTgwutv4SFY01zLwJAk-44" vertex="1">
          <mxGeometry y="110" width="160" height="66" as="geometry" />
        </mxCell>
        <mxCell id="2mTgwutv4SFY01zLwJAk-51" style="edgeStyle=orthogonalEdgeStyle;rounded=0;sketch=0;orthogonalLoop=1;jettySize=auto;html=1;entryX=1;entryY=0.5;entryDx=0;entryDy=0;startArrow=none;startFill=0;endArrow=none;endFill=0;" parent="1" source="TXsVOiQQEkHrG9GgxMM1-2" target="2mTgwutv4SFY01zLwJAk-10" edge="1">
          <mxGeometry relative="1" as="geometry">
            <mxPoint x="315" y="453" as="sourcePoint" />
          </mxGeometry>
        </mxCell>
        <mxCell id="2mTgwutv4SFY01zLwJAk-66" value="" style="endArrow=none;endFill=0;endSize=12;html=1;exitX=0.995;exitY=0.938;exitDx=0;exitDy=0;exitPerimeter=0;entryX=0.005;entryY=0.131;entryDx=0;entryDy=0;entryPerimeter=0;" parent="1" source="2mTgwutv4SFY01zLwJAk-8" target="2mTgwutv4SFY01zLwJAk-61" edge="1">
          <mxGeometry width="160" relative="1" as="geometry">
            <mxPoint x="330" y="400" as="sourcePoint" />
            <mxPoint x="490" y="400" as="targetPoint" />
          </mxGeometry>
        </mxCell>
        <mxCell id="2mTgwutv4SFY01zLwJAk-21" value="Лечение" style="swimlane;fontStyle=1;align=center;verticalAlign=top;childLayout=stackLayout;horizontal=1;startSize=26;horizontalStack=0;resizeParent=1;resizeParentMax=0;resizeLast=0;collapsible=1;marginBottom=0;" parent="1" vertex="1">
          <mxGeometry x="290" y="20" width="160" height="182" as="geometry" />
        </mxCell>
        <mxCell id="2mTgwutv4SFY01zLwJAk-22" value="ФИО пациента&#xa;Вид лечения&#xa;Дата начала&#xa;Дата окончания" style="text;strokeColor=none;fillColor=none;align=left;verticalAlign=top;spacingLeft=4;spacingRight=4;overflow=hidden;rotatable=0;points=[[0,0.5],[1,0.5]];portConstraint=eastwest;" parent="2mTgwutv4SFY01zLwJAk-21" vertex="1">
          <mxGeometry y="26" width="160" height="74" as="geometry" />
        </mxCell>
        <mxCell id="2mTgwutv4SFY01zLwJAk-23" value="" style="line;strokeWidth=1;fillColor=none;align=left;verticalAlign=middle;spacingTop=-1;spacingLeft=3;spacingRight=3;rotatable=0;labelPosition=right;points=[];portConstraint=eastwest;" parent="2mTgwutv4SFY01zLwJAk-21" vertex="1">
          <mxGeometry y="100" width="160" height="30" as="geometry" />
        </mxCell>
        <mxCell id="2mTgwutv4SFY01zLwJAk-24" value="Начать лечение&#xa;Закрыть лечение" style="text;strokeColor=none;fillColor=none;align=left;verticalAlign=top;spacingLeft=4;spacingRight=4;overflow=hidden;rotatable=0;points=[[0,0.5],[1,0.5]];portConstraint=eastwest;" parent="2mTgwutv4SFY01zLwJAk-21" vertex="1">
          <mxGeometry y="130" width="160" height="52" as="geometry" />
        </mxCell>
        <mxCell id="2mTgwutv4SFY01zLwJAk-61" value="Прием" style="swimlane;fontStyle=1;align=center;verticalAlign=top;childLayout=stackLayout;horizontal=1;startSize=26;horizontalStack=0;resizeParent=1;resizeParentMax=0;resizeLast=0;collapsible=1;marginBottom=0;" parent="1" vertex="1">
          <mxGeometry x="440" y="230" width="160" height="148" as="geometry" />
        </mxCell>
        <mxCell id="2mTgwutv4SFY01zLwJAk-62" value="Дата приема&#xa;Время начала&#xa;Время окончания&#xa;Дагноз&#xa;" style="text;strokeColor=none;fillColor=none;align=left;verticalAlign=top;spacingLeft=4;spacingRight=4;overflow=hidden;rotatable=0;points=[[0,0.5],[1,0.5]];portConstraint=eastwest;" parent="2mTgwutv4SFY01zLwJAk-61" vertex="1">
          <mxGeometry y="26" width="160" height="84" as="geometry" />
        </mxCell>
        <mxCell id="2mTgwutv4SFY01zLwJAk-63" value="" style="line;strokeWidth=1;fillColor=none;align=left;verticalAlign=middle;spacingTop=-1;spacingLeft=3;spacingRight=3;rotatable=0;labelPosition=right;points=[];portConstraint=eastwest;" parent="2mTgwutv4SFY01zLwJAk-61" vertex="1">
          <mxGeometry y="110" width="160" height="8" as="geometry" />
        </mxCell>
        <mxCell id="2mTgwutv4SFY01zLwJAk-64" value="Записаться повторно" style="text;strokeColor=none;fillColor=none;align=left;verticalAlign=top;spacingLeft=4;spacingRight=4;overflow=hidden;rotatable=0;points=[[0,0.5],[1,0.5]];portConstraint=eastwest;" parent="2mTgwutv4SFY01zLwJAk-61" vertex="1">
          <mxGeometry y="118" width="160" height="30" as="geometry" />
        </mxCell>
        <mxCell id="TXsVOiQQEkHrG9GgxMM1-2" value="Участок" style="swimlane;fontStyle=1;align=center;verticalAlign=top;childLayout=stackLayout;horizontal=1;startSize=26;horizontalStack=0;resizeParent=1;resizeParentMax=0;resizeLast=0;collapsible=1;marginBottom=0;" vertex="1" parent="1">
          <mxGeometry x="254" y="462" width="160" height="150" as="geometry" />
        </mxCell>
        <mxCell id="TXsVOiQQEkHrG9GgxMM1-3" value="Номер&#xa;Адрес&#xa;Список пациентов" style="text;strokeColor=none;fillColor=none;align=left;verticalAlign=top;spacingLeft=4;spacingRight=4;overflow=hidden;rotatable=0;points=[[0,0.5],[1,0.5]];portConstraint=eastwest;" vertex="1" parent="TXsVOiQQEkHrG9GgxMM1-2">
          <mxGeometry y="26" width="160" height="74" as="geometry" />
        </mxCell>
        <mxCell id="TXsVOiQQEkHrG9GgxMM1-4" value="" style="line;strokeWidth=1;fillColor=none;align=left;verticalAlign=middle;spacingTop=-1;spacingLeft=3;spacingRight=3;rotatable=0;labelPosition=right;points=[];portConstraint=eastwest;" vertex="1" parent="TXsVOiQQEkHrG9GgxMM1-2">
          <mxGeometry y="100" width="160" height="8" as="geometry" />
        </mxCell>
        <mxCell id="TXsVOiQQEkHrG9GgxMM1-5" value="Обновить&#xa;Удалить" style="text;strokeColor=none;fillColor=none;align=left;verticalAlign=top;spacingLeft=4;spacingRight=4;overflow=hidden;rotatable=0;points=[[0,0.5],[1,0.5]];portConstraint=eastwest;" vertex="1" parent="TXsVOiQQEkHrG9GgxMM1-2">
          <mxGeometry y="108" width="160" height="42" as="geometry" />
        </mxCell>
      </root>
    </mxGraphModel>
  </diagram>
</mxfile>
